<?xml version="1.0" ?><!DOCTYPE svg  PUBLIC '-//W3C//DTD SVG 1.1//EN'  'http://www.w3.org/Graphics/SVG/1.1/DTD/svg11.dtd'><svg enable-background="new 0 75.9 595.3 690" version="1.1" viewBox="0 75.9 595.3 690" xml:space="preserve" xmlns="http://www.w3.org/2000/svg" xmlns:xlink="http://www.w3.org/1999/xlink"><g id="Animation_Solid"><g><polygon points="318,281.7 214,420.6 298.2,420.6 287.3,469.1 268.4,559.9 367.7,391 298.2,391   "/><path d="M297.6,76.6L0,248.8v344.4l297.6,172.2l297.6-172.2V248.8L297.6,76.6z M408.6,402.8L284.4,571.6c-3.8,5.2-9.8,8.1-16,8.1    c-2.7,0-5.5-0.6-8.1-1.7c-8.5-3.8-13.3-13-11.4-22.2l19.8-95.3h-69.9c-7.5,0-14.4-4.2-17.8-11c-3.4-6.7-2.6-14.8,1.9-20.8L302,270    c0.3-0.4,0.6-0.8,0.9-1.1c1.2-1.4,2.6-2.7,4.1-3.7c2.8-1.8,6-3,9.5-3.3c0.5,0,1-0.1,1.5-0.1c0.4,0,0.7,0,1.1,0    c10.5,0.6,18.8,9.2,18.8,19.8c0,1.5-0.2,2.9-0.5,4.3L322,371.1h70.6c7.5,0,14.3,4.2,17.7,10.9C413.7,388.7,413,396.7,408.6,402.8z    "/></g></g></svg>