<?xml version="1.0" ?><svg data-name="Layer 1" id="Layer_1" viewBox="0 0 512 512" xmlns="http://www.w3.org/2000/svg"><title/><rect height="412.22" rx="55.43" width="412.22" x="49.89" y="49.89"/><rect fill="#fefefe" height="17.57" width="61.91" x="295.41" y="183.48"/><path d="M238.64,245c22.3-4.05,20-30,20-30-1.86-35.31-35.82-35.81-35.82-35.81H139.7v148h80.82c44.22-1.42,43.8-41.9,43.8-41.9C266,248.52,238.64,245,238.64,245Zm-64.07-40.08h36.58a18.54,18.54,0,0,1,10.91,3.41c6.69,4.91,6,13.59,6,13.59,0,.15,0,.3,0,.46,0,9.28-8.21,16.54-18.06,16.54H174.57Zm57.8,76.36a19.2,19.2,0,0,1-19.52,19.14H174.57V261.08h39.51c4.25,0,8.61,1.13,11.78,3.95,7.2,6.4,6.49,15.72,6.49,15.72C232.36,280.93,232.37,281.1,232.37,281.28Z" fill="#fefefe"/><path d="M351.77,287.49s-1.35,16.83-25.41,15.41c0,0-24.26-.41-24.67-26.16h77.45s3-26.35-6.29-40.34c0,0-9.73-24-45-24.74,0,0-42.44-2.91-54.94,40.75,0,0-4.66,22.1,0,38.73,0,0,11,36.29,53.46,35.88,0,0,51.7,4.87,53.25-39.53Zm-26.55-53.87s22.76-2.83,25.87,23.25H302.43S301.92,237.68,325.22,233.62Z" fill="#fefefe"/></svg>